<?xml version="1.0" encoding="UTF-8"?>
<!DOCTYPE svg PUBLIC "-//W3C//DTD SVG 1.1//EN" "http://www.w3.org/Graphics/SVG/1.1/DTD/svg11.dtd">
<!-- Creator: CorelDRAW X7 -->
<svg xmlns="http://www.w3.org/2000/svg" xml:space="preserve" width="50mm" height="80mm" version="1.1" style="shape-rendering:geometricPrecision; text-rendering:geometricPrecision; image-rendering:optimizeQuality; fill-rule:evenodd; clip-rule:evenodd"
viewBox="0 0 5000 8000"
 xmlns:xlink="http://www.w3.org/1999/xlink">
 <defs>
  <style type="text/css">
   <![CDATA[
    .fil0 {fill:#0C0C0C}
   ]]>
  </style>
 </defs>
 <g id="Capa_x0020_1">
  <metadata id="CorelCorpID_0Corel-Layer"/>
  <path class="fil0" d="M4759 3540c-301,14 -1012,892 -1346,979 -424,-788 -1300,-436 -2158,-162 -209,67 -616,283 -835,121 -193,-491 829,-2220 1051,-2515 424,-566 803,-1019 1390,-1356 455,-261 564,-139 636,-285 -256,-173 -923,265 -1071,369 -781,552 -1557,1760 -1914,2632 -95,231 -406,939 -204,1201 247,319 826,56 1152,-57 351,-121 1461,-528 1760,-80 312,466 -541,544 -1511,2130 -1252,2048 1222,1382 1722,-1276 113,-598 -148,-329 571,-946l633 -510c98,-73 166,-79 124,-245zm-3235 4022c773,56 1690,-1576 1776,-2568 -163,14 -228,135 -327,234 -344,344 -412,401 -765,838 -228,281 -690,992 -684,1496z"/>
 </g>
</svg>
