<?xml version="1.0" encoding="UTF-8"?>
<!DOCTYPE svg PUBLIC "-//W3C//DTD SVG 1.1//EN" "http://www.w3.org/Graphics/SVG/1.1/DTD/svg11.dtd">
<!-- Creator: CorelDRAW X7 -->
<svg xmlns="http://www.w3.org/2000/svg" xml:space="preserve" width="70mm" height="6mm" version="1.1" style="shape-rendering:geometricPrecision; text-rendering:geometricPrecision; image-rendering:optimizeQuality; fill-rule:evenodd; clip-rule:evenodd"
viewBox="0 0 7000 600"
 xmlns:xlink="http://www.w3.org/1999/xlink">
 <defs>
  <style type="text/css">
   <![CDATA[
    .fil0 {fill:#373435;fill-rule:nonzero}
   ]]>
  </style>
 </defs>
 <g id="Capa_x0020_1">
  <metadata id="CorelCorpID_0Corel-Layer"/>
  <path class="fil0" d="M137 342l58 -3c2,16 9,29 19,39 10,10 26,18 47,24 21,7 45,10 71,10 24,0 45,-3 63,-7 18,-5 31,-12 40,-20 9,-8 13,-17 13,-27 0,-10 -4,-18 -13,-26 -8,-7 -22,-13 -42,-18 -12,-3 -40,-9 -83,-16 -43,-7 -73,-13 -90,-19 -22,-8 -39,-18 -49,-30 -11,-11 -17,-24 -17,-39 0,-16 7,-31 20,-45 14,-13 33,-24 59,-31 25,-7 54,-11 85,-11 35,0 65,4 92,11 26,8 47,19 61,34 14,14 22,31 23,49l-60 3c-3,-20 -13,-35 -32,-45 -18,-10 -45,-15 -81,-15 -38,0 -65,5 -82,14 -17,9 -26,20 -26,33 0,12 7,21 19,28 12,8 43,15 93,23 50,7 84,14 103,20 27,8 47,19 60,32 13,13 19,28 19,45 0,16 -7,32 -21,47 -14,15 -34,26 -61,34 -27,9 -57,13 -90,13 -42,0 -77,-4 -106,-13 -28,-8 -51,-20 -67,-37 -16,-17 -25,-36 -25,-57zm637 101l0 -315 337 0 0 37 -275 0 0 97 257 0 0 37 -257 0 0 108 286 0 0 36 -348 0zm596 -153c0,-52 20,-93 62,-123 42,-29 95,-44 161,-44 43,0 82,7 117,21 34,14 61,33 79,58 18,25 27,53 27,84 0,32 -9,61 -29,86 -19,25 -46,44 -81,57 -35,13 -73,20 -113,20 -44,0 -83,-7 -118,-22 -35,-14 -61,-34 -79,-58 -18,-25 -26,-51 -26,-79zm63 1c0,38 16,68 46,89 30,22 68,33 113,33 47,0 85,-11 115,-33 30,-22 45,-53 45,-94 0,-25 -6,-48 -19,-67 -13,-19 -32,-34 -56,-44 -25,-11 -53,-16 -84,-16 -43,0 -81,10 -112,31 -32,20 -48,54 -48,101zm556 152l179 -315 68 0 190 315 -70 0 -54 -95 -196 0 -51 95 -66 0zm135 -129l159 0 -49 -87c-15,-27 -26,-49 -33,-66 -7,20 -15,41 -26,61l-51 92zm496 129l0 -315 63 0 245 248 0 -248 60 0 0 315 -64 0 -245 -247 0 247 -59 0zm654 0l0 -315 337 0 0 37 -275 0 0 97 257 0 0 37 -257 0 0 108 286 0 0 36 -348 0zm945 -89l56 -5c1,24 8,41 20,49 11,9 28,14 49,14 15,0 29,-3 40,-7 11,-5 19,-12 23,-20 4,-8 6,-21 6,-39l0 -218 62 0 0 215c0,26 -4,47 -14,61 -9,15 -24,26 -45,33 -20,8 -44,12 -72,12 -41,0 -72,-8 -94,-24 -21,-16 -32,-40 -31,-71zm520 -64c0,-52 20,-93 62,-123 42,-29 95,-44 161,-44 43,0 82,7 117,21 34,14 61,33 79,58 18,25 27,53 27,84 0,32 -10,61 -29,86 -19,25 -46,44 -81,57 -35,13 -73,20 -113,20 -44,0 -83,-7 -118,-22 -35,-14 -61,-34 -79,-58 -18,-25 -26,-51 -26,-79zm63 1c0,38 16,68 46,89 30,22 68,33 113,33 47,0 85,-11 115,-33 30,-22 45,-53 45,-94 0,-25 -6,-48 -19,-67 -13,-19 -32,-34 -56,-44 -25,-11 -53,-16 -84,-16 -43,0 -81,10 -112,31 -32,20 -48,54 -48,101zm763 152l0 -133 -180 -182 75 0 92 96c17,17 33,35 48,53 14,-17 31,-35 51,-56l91 -93 72 0 -187 182 0 133 -62 0zm386 0l179 -315 68 0 190 315 -71 0 -54 -95 -196 0 -51 95 -65 0zm134 -129l159 0 -49 -87c-14,-27 -25,-49 -33,-66 -6,20 -15,41 -26,61l-51 92zm477 28l58 -3c2,16 9,29 19,39 10,10 26,18 47,24 21,7 45,10 71,10 24,0 45,-3 63,-7 18,-5 31,-12 40,-20 9,-8 13,-17 13,-27 0,-10 -4,-18 -12,-26 -9,-7 -23,-13 -42,-18 -13,-3 -41,-9 -84,-16 -43,-7 -72,-13 -90,-19 -22,-8 -38,-18 -49,-30 -11,-11 -17,-24 -17,-39 0,-16 7,-31 20,-45 14,-13 33,-24 59,-31 26,-7 54,-11 86,-11 34,0 65,4 91,11 26,8 47,19 61,34 14,14 22,31 23,49l-59 3c-4,-20 -14,-35 -33,-45 -18,-10 -45,-15 -81,-15 -37,0 -65,5 -82,14 -17,9 -25,20 -25,33 0,12 6,21 18,28 12,8 43,15 93,23 50,7 84,14 103,20 27,8 47,19 60,32 13,13 20,28 20,45 0,16 -7,32 -22,47 -14,15 -34,26 -61,34 -26,9 -56,13 -90,13 -42,0 -77,-4 -106,-13 -28,-8 -50,-20 -67,-37 -16,-17 -24,-36 -25,-57z"/>
 </g>
</svg>
